<?xml version="1.0" encoding="utf-8"?>
<!-- Generator: Adobe Illustrator 22.0.1, SVG Export Plug-In . SVG Version: 6.00 Build 0)  -->
<svg version="1.1" id="Layer_1" xmlns="http://www.w3.org/2000/svg" xmlns:xlink="http://www.w3.org/1999/xlink" x="0px" y="0px"
	 viewBox="0 0 6912 6912" style="enable-background:new 0 0 6912 6912;" xml:space="preserve">
<style type="text/css">
	.st0{fill:none;stroke:#000000;stroke-miterlimit:10;}
</style>
<circle class="st0" cx="486" cy="111" r="14.2"/>
<path class="st0" d="M541,465.4c0-65.9,0-131.8,0-197.7c-35.9,0-71.8,0-107.7,0c0,23.6,0,47.2,0,70.9c-10.6,0-21.2,0-31.9,0
	c-19.8,0-35.8-16.1-35.8-35.8c0-49.6,0-99.5,0-149.5c0-66.5,54-120.4,120.4-120.4s120.4,54,120.4,120.4c0,92.1,0,184.2,0,276.3
	c0,19.8-16.1,35.8-35.8,35.8C560.7,465.4,550.9,465.4,541,465.4z"/>
<circle class="st0" cx="166" cy="111" r="14.2"/>
<path class="st0" d="M221,465.4c0-65.9,0-131.8,0-197.7c-35.9,0-71.8,0-107.7,0c0,23.6,0,47.2,0,70.9c-10.6,0-21.2,0-31.9,0
	c-19.8,0-35.8-16.1-35.8-35.8c0-49.6,0-99.5,0-149.5c0-66.5,54-120.4,120.4-120.4s120.4,54,120.4,120.4c0,92.1,0,184.2,0,276.3
	c0,19.8-16.1,35.8-35.8,35.8C240.7,465.4,230.9,465.4,221,465.4z"/>
</svg>
